<?xml version="1.0" encoding="UTF-8"?>
<svg width="36px" height="46px" viewBox="0 0 36 46" version="1.1" xmlns="http://www.w3.org/2000/svg" xmlns:xlink="http://www.w3.org/1999/xlink">
    <!-- Generator: Sketch 46.2 (44496) - http://www.bohemiancoding.com/sketch -->
    <title>10B</title>
    <desc>Created with Sketch.</desc>
    <defs></defs>
    <g id="Page-1" stroke="none" stroke-width="1" fill="none" fill-rule="evenodd">
        <g id="FREE100icons" transform="translate(-1309.000000, -299.000000)" fill="#1A1919">
            <g id="B" transform="translate(15.000000, 299.000000)">
                <path d="M1313.43,24.267 C1314.57,24.826 1315.36,25.989 1315.36,27.345 C1315.36,29.24 1313.82,30.782 1311.93,30.782 C1310.03,30.782 1308.49,29.24 1308.49,27.345 C1308.49,25.989 1309.28,24.826 1310.43,24.267 L1310.43,16.907 C1310.43,16.079 1311.1,15.407 1311.93,15.407 C1312.75,15.407 1313.43,16.079 1313.43,16.907 L1313.43,24.267 Z M1307.74,3.386 C1306.91,3.386 1306.24,2.715 1306.24,1.886 C1306.24,1.058 1306.91,0.386 1307.74,0.386 L1315.49,0.386 C1316.32,0.386 1316.99,1.058 1316.99,1.886 C1316.99,2.715 1316.32,3.386 1315.49,3.386 L1313.11,3.386 L1313.11,6.72 C1313.11,7.548 1312.44,8.22 1311.61,8.22 C1310.79,8.22 1310.11,7.548 1310.11,6.72 L1310.11,3.386 L1307.74,3.386 Z M1311.93,42.22 C1303.72,42.22 1297.05,35.547 1297.05,27.345 C1297.05,19.143 1303.72,12.47 1311.93,12.47 C1320.13,12.47 1326.8,19.143 1326.8,27.345 C1326.8,35.547 1320.13,42.22 1311.93,42.22 Z M1325.1,15.306 L1327.37,13.038 C1327.95,12.452 1327.95,11.502 1327.37,10.917 C1326.78,10.331 1325.83,10.331 1325.25,10.917 L1322.9,13.265 C1319.87,10.896 1316.06,9.47 1311.93,9.47 C1302.07,9.47 1294.05,17.488 1294.05,27.345 C1294.05,37.201 1302.07,45.22 1311.93,45.22 C1321.78,45.22 1329.8,37.201 1329.8,27.345 C1329.8,22.705 1328.01,18.486 1325.1,15.306 L1325.1,15.306 Z" id="10B"></path>
            </g>
        </g>
    </g>
</svg>